<svg width="78" height="424" viewBox="0 0 78 424" fill="none" xmlns="http://www.w3.org/2000/svg">
<path d="M38.6775 0C38.6775 0 0 94.9156 0 212C0 257.788 3.37463 300.186 7.87743 334.842C14.8888 388.805 25.6701 424 38.6775 424V212V0Z" fill="#98BD82"/>
<path d="M77.355 212C77.355 94.9156 38.6775 0 38.6775 0V212V424C51.6849 424 62.4663 388.805 69.4776 334.842C73.9804 300.186 77.355 257.788 77.355 212Z" fill="#EA3C3C"/>
<path d="M54.1067 84.9665C54.1067 86.1265 53.8767 87.1465 53.4167 88.0265C52.9567 88.8865 52.3667 89.6365 51.6467 90.2765C50.9267 90.9165 50.1767 91.4565 49.3967 91.8965C48.9167 92.1565 48.3867 92.4565 47.8067 92.7965C47.2467 93.1165 46.6467 93.3965 46.0067 93.6365C45.3667 93.8765 44.6767 93.9965 43.9367 93.9965C43.7367 95.0365 43.4167 96.0165 42.9767 96.9365C42.5367 97.8365 41.9667 98.6365 41.2667 99.3365C41.0867 99.5165 40.8667 99.7065 40.6067 99.9065C40.3667 100.087 40.0967 100.257 39.7967 100.417C40.2567 100.577 40.6467 100.707 40.9667 100.807C41.3067 100.927 41.7167 101.067 42.1967 101.227C42.7367 101.407 43.1967 101.607 43.5767 101.827C43.9567 102.047 44.3267 102.267 44.6867 102.487C45.0467 102.707 45.4467 102.887 45.8867 103.027C46.3267 103.167 46.8767 103.237 47.5367 103.237C48.1767 103.237 48.8067 103.137 49.4267 102.937C50.0667 102.757 50.5967 102.467 51.0167 102.067C51.4567 101.687 51.6767 101.187 51.6767 100.567C51.6767 99.9865 51.4767 99.5665 51.0767 99.3065C50.6767 99.0265 50.1867 98.8865 49.6067 98.8865C49.1667 98.8865 48.8067 99.0865 48.5267 99.4865C48.2467 99.8665 48.0467 100.197 47.9267 100.477C47.7267 100.897 47.5567 101.107 47.4167 101.107C47.2567 101.107 47.1767 100.937 47.1767 100.597C47.1767 100.417 47.2067 100.217 47.2667 99.9965C47.3467 99.7765 47.4567 99.5665 47.5967 99.3665C47.8167 99.0465 48.0767 98.7865 48.3767 98.5865C48.6767 98.3865 49.0867 98.2865 49.6067 98.2865C50.3467 98.2865 51.0167 98.4965 51.6167 98.9165C52.2167 99.3165 52.5167 99.8865 52.5167 100.627C52.5167 101.347 52.2967 101.977 51.8567 102.517C51.4367 103.057 50.8867 103.477 50.2067 103.777C49.5467 104.077 48.8467 104.227 48.1067 104.227C47.2067 104.227 46.4867 104.147 45.9467 103.987C45.4067 103.847 44.8967 103.657 44.4167 103.417C43.9567 103.197 43.3767 102.977 42.6767 102.757C42.1767 102.597 41.5867 102.337 40.9067 101.977C40.2267 101.637 39.6267 101.367 39.1067 101.167C39.0467 101.127 38.9767 101.087 38.8967 101.047C38.8367 101.027 38.7667 100.997 38.6867 100.957C38.1267 101.197 37.5367 101.387 36.9167 101.527C36.3167 101.687 35.7267 101.767 35.1467 101.767C34.9467 101.767 34.6967 101.687 34.3967 101.527C34.1167 101.387 33.8667 101.197 33.6467 100.957C33.4467 100.717 33.3467 100.457 33.3467 100.177C33.3467 99.9965 33.4167 99.7865 33.5567 99.5465C33.7167 99.2865 33.9067 99.0665 34.1267 98.8865C34.3667 98.7065 34.5967 98.6165 34.8167 98.6165C35.2767 98.6165 35.8267 98.7365 36.4667 98.9765C37.1267 99.2165 37.7367 99.4765 38.2967 99.7565C38.4967 99.5565 38.6867 99.3665 38.8667 99.1865C39.0467 98.9865 39.2267 98.7965 39.4067 98.6165C40.0067 98.0165 40.5167 97.3065 40.9367 96.4865C41.3567 95.6665 41.7267 94.8065 42.0467 93.9065C41.1267 93.8265 40.2267 93.6765 39.3467 93.4565C38.4667 93.2165 37.6667 92.8865 36.9467 92.4665C36.2467 92.0465 35.6767 91.5265 35.2367 90.9065C34.8167 90.2665 34.6067 89.5065 34.6067 88.6265C34.6067 87.6865 34.8467 86.8065 35.3267 85.9865C35.8267 85.1465 36.4767 84.4665 37.2767 83.9465C38.0767 83.4265 38.9367 83.1665 39.8567 83.1665C40.9967 83.1665 41.9067 83.3665 42.5867 83.7665C43.2667 84.1665 43.6067 84.9365 43.6067 86.0765C43.6067 86.6165 43.4367 87.1465 43.0967 87.6665C42.7767 88.1665 42.4467 88.5265 42.1067 88.7465C42.0267 88.7865 41.9767 88.8065 41.9567 88.8065C41.7767 88.8065 41.6867 88.7065 41.6867 88.5065C41.6867 88.3865 41.7267 88.2965 41.8067 88.2365C42.0267 88.0565 42.2767 87.7665 42.5567 87.3665C42.8567 86.9665 43.0067 86.5365 43.0067 86.0765C43.0067 85.1365 42.7167 84.5165 42.1367 84.2165C41.5567 83.9165 40.7967 83.7665 39.8567 83.7665C39.0367 83.7665 38.3467 84.0065 37.7867 84.4865C37.2267 84.9665 36.8067 85.5865 36.5267 86.3465C36.2467 87.0865 36.1067 87.8865 36.1067 88.7465C36.1067 89.8065 36.3967 90.6565 36.9767 91.2965C37.5567 91.9365 38.3167 92.4165 39.2567 92.7365C40.1967 93.0365 41.1967 93.2365 42.2567 93.3365C42.3967 92.9365 42.5267 92.5465 42.6467 92.1665C42.7667 91.7865 42.8867 91.4065 43.0067 91.0265C43.4667 89.6865 43.8767 88.3465 44.2367 87.0065C44.6167 85.6465 45.0967 84.3865 45.6767 83.2265C45.9367 82.6865 46.2367 82.1565 46.5767 81.6365C46.9367 81.0965 47.3667 80.6465 47.8667 80.2865C48.3867 79.9265 49.0267 79.7465 49.7867 79.7465C50.2267 79.7465 50.6667 79.7765 51.1067 79.8365C51.5467 79.8965 51.8967 80.0265 52.1567 80.2265C52.7767 80.7265 53.2567 81.3665 53.5967 82.1465C53.9367 82.9065 54.1067 83.8465 54.1067 84.9665ZM52.0067 84.9665C52.1067 84.5665 52.1767 84.2065 52.2167 83.8865C52.2767 83.5665 52.3067 83.2765 52.3067 83.0165C52.3067 82.2565 51.9867 81.6265 51.3467 81.1265C51.1467 80.9665 50.9367 80.8765 50.7167 80.8565C50.5167 80.8165 50.2367 80.7965 49.8767 80.7965C48.8367 80.7965 48.0467 81.0765 47.5067 81.6365C46.9867 82.1765 46.5567 82.7965 46.2167 83.4965C45.6367 84.6565 45.1967 85.8965 44.8967 87.2165C44.5967 88.5165 44.3667 90.1165 44.2067 92.0165C44.1867 92.2565 44.1667 92.4965 44.1467 92.7365C44.1267 92.9565 44.0967 93.1765 44.0567 93.3965C44.7367 93.3765 45.3667 93.2565 45.9467 93.0365C46.5267 92.7965 47.0767 92.5165 47.5967 92.1965C48.1167 91.8765 48.6067 91.5865 49.0667 91.3265C49.6067 91.0265 50.0467 90.6165 50.3867 90.0965C50.7467 89.5565 51.0167 88.9765 51.1967 88.3565C51.3967 87.7165 51.5567 87.0965 51.6767 86.4965C51.7967 85.8965 51.9067 85.3865 52.0067 84.9665ZM37.5167 100.387C37.1567 100.207 36.7867 100.047 36.4067 99.9065C36.0267 99.7665 35.6667 99.6965 35.3267 99.6965C35.1067 99.6965 34.8967 99.7565 34.6967 99.8765C34.5167 99.9965 34.4267 100.147 34.4267 100.327C34.4267 100.587 34.4967 100.787 34.6367 100.927C34.7767 101.087 34.9467 101.167 35.1467 101.167C35.6267 101.167 36.0567 101.087 36.4367 100.927C36.8367 100.787 37.1967 100.607 37.5167 100.387Z" fill="black"/>
</svg>
