<svg width="197" height="46" viewBox="0 0 197 46" fill="none" xmlns="http://www.w3.org/2000/svg">
<rect x="0.5" y="0.5" width="196" height="45" fill="white" stroke="black"/>
<path d="M73.5852 30V16.9091H78.0085C79.0313 16.9091 79.8707 17.0838 80.527 17.4332C81.1832 17.7784 81.669 18.2536 81.9844 18.8587C82.2997 19.4638 82.4574 20.152 82.4574 20.9233C82.4574 21.6946 82.2997 22.3786 81.9844 22.9751C81.669 23.5717 81.1854 24.0405 80.5334 24.3814C79.8814 24.718 79.0483 24.8864 78.0341 24.8864H74.4545V23.4545H77.983C78.6818 23.4545 79.2443 23.3523 79.6705 23.1477C80.1009 22.9432 80.4119 22.6534 80.6037 22.2784C80.7997 21.8991 80.8977 21.4474 80.8977 20.9233C80.8977 20.3991 80.7997 19.9411 80.6037 19.549C80.4077 19.157 80.0945 18.8544 79.6641 18.6413C79.2337 18.424 78.6648 18.3153 77.9574 18.3153H75.1705V30H73.5852ZM79.7472 24.1193L82.9688 30H81.1278L77.9574 24.1193H79.7472ZM88.9054 30.2045C87.9593 30.2045 87.1433 29.9957 86.4572 29.5781C85.7754 29.1562 85.2491 28.5682 84.8784 27.8139C84.5119 27.0554 84.3287 26.1733 84.3287 25.1676C84.3287 24.1619 84.5119 23.2756 84.8784 22.5085C85.2491 21.7372 85.7647 21.1364 86.4252 20.706C87.09 20.2713 87.8656 20.054 88.752 20.054C89.2633 20.054 89.7683 20.1392 90.2669 20.3097C90.7654 20.4801 91.2193 20.7571 91.6284 21.1406C92.0375 21.5199 92.3635 22.0227 92.6064 22.6491C92.8493 23.2756 92.9707 24.0469 92.9707 24.9631V25.6023H85.4025V24.2983H91.4366C91.4366 23.7443 91.3258 23.25 91.1042 22.8153C90.8869 22.3807 90.5758 22.0376 90.171 21.7862C89.7704 21.5348 89.2974 21.4091 88.752 21.4091C88.1511 21.4091 87.6312 21.5582 87.1923 21.8565C86.7576 22.1506 86.4231 22.5341 86.1887 23.0071C85.9544 23.4801 85.8372 23.9872 85.8372 24.5284V25.3977C85.8372 26.1392 85.965 26.7678 86.2207 27.2834C86.4806 27.7947 86.8407 28.1847 87.301 28.4531C87.7612 28.7173 88.296 28.8494 88.9054 28.8494C89.3017 28.8494 89.6596 28.794 89.9792 28.6832C90.3031 28.5682 90.5822 28.3977 90.8166 28.1719C91.051 27.9418 91.2321 27.6562 91.3599 27.3153L92.8173 27.7244C92.6639 28.2188 92.4061 28.6534 92.0439 29.0284C91.6816 29.3991 91.2342 29.6889 90.7015 29.8977C90.1689 30.1023 89.5701 30.2045 88.9054 30.2045ZM98.1547 30.2301C97.5325 30.2301 96.9679 30.1129 96.4608 29.8786C95.9537 29.6399 95.551 29.2969 95.2527 28.8494C94.9544 28.3977 94.8052 27.8523 94.8052 27.2131C94.8052 26.6506 94.916 26.1946 95.1376 25.8452C95.3592 25.4915 95.6554 25.2145 96.0261 25.0142C96.3968 24.8139 96.8059 24.6648 97.2534 24.5668C97.7051 24.4645 98.1589 24.3835 98.6149 24.3239C99.2115 24.2472 99.6951 24.1896 100.066 24.1513C100.441 24.1087 100.714 24.0384 100.884 23.9403C101.059 23.8423 101.146 23.6719 101.146 23.429V23.3778C101.146 22.7472 100.974 22.2571 100.628 21.9077C100.287 21.5582 99.7697 21.3835 99.0751 21.3835C98.3549 21.3835 97.7903 21.5412 97.3812 21.8565C96.9721 22.1719 96.6845 22.5085 96.5183 22.8665L95.0865 22.3551C95.3422 21.7585 95.6831 21.294 96.1092 20.9616C96.5396 20.625 97.0083 20.3906 97.5154 20.2585C98.0268 20.1222 98.5297 20.054 99.024 20.054C99.3393 20.054 99.7015 20.0923 100.111 20.169C100.524 20.2415 100.922 20.3928 101.306 20.6229C101.694 20.853 102.015 21.2003 102.271 21.6648C102.527 22.1293 102.655 22.7514 102.655 23.5312V30H101.146V28.6705H101.069C100.967 28.8835 100.797 29.1115 100.558 29.3544C100.319 29.5973 100.002 29.804 99.6056 29.9744C99.2093 30.1449 98.7257 30.2301 98.1547 30.2301ZM98.3848 28.875C98.9814 28.875 99.4842 28.7578 99.8933 28.5234C100.307 28.2891 100.618 27.9865 100.827 27.6158C101.04 27.245 101.146 26.8551 101.146 26.446V25.0653C101.082 25.142 100.942 25.2124 100.724 25.2763C100.511 25.3359 100.264 25.3892 99.9828 25.4361C99.7058 25.4787 99.4352 25.517 99.171 25.5511C98.911 25.581 98.7001 25.6065 98.5382 25.6278C98.1461 25.679 97.7797 25.7621 97.4387 25.8771C97.1021 25.9879 96.8294 26.1562 96.6206 26.3821C96.416 26.6037 96.3137 26.9062 96.3137 27.2898C96.3137 27.8139 96.5076 28.2102 96.8954 28.4787C97.2875 28.7429 97.7839 28.875 98.3848 28.875ZM109.115 30.2045C108.297 30.2045 107.575 29.9979 106.949 29.5845C106.322 29.1669 105.832 28.5788 105.478 27.8203C105.125 27.0575 104.948 26.1562 104.948 25.1165C104.948 24.0852 105.125 23.1903 105.478 22.4318C105.832 21.6733 106.324 21.0874 106.955 20.674C107.586 20.2607 108.314 20.054 109.141 20.054C109.78 20.054 110.285 20.1605 110.656 20.3736C111.031 20.5824 111.316 20.821 111.512 21.0895C111.713 21.3537 111.868 21.571 111.979 21.7415H112.107V16.9091H113.615V30H112.158V28.4915H111.979C111.868 28.6705 111.711 28.8963 111.506 29.169C111.301 29.4375 111.01 29.6783 110.63 29.8913C110.251 30.1001 109.746 30.2045 109.115 30.2045ZM109.32 28.8494C109.925 28.8494 110.436 28.6918 110.854 28.3764C111.272 28.0568 111.589 27.6158 111.806 27.0533C112.024 26.4865 112.132 25.8324 112.132 25.0909C112.132 24.358 112.026 23.7166 111.813 23.1669C111.6 22.6129 111.284 22.1825 110.867 21.8757C110.449 21.5646 109.934 21.4091 109.32 21.4091C108.681 21.4091 108.148 21.5732 107.722 21.9013C107.3 22.2251 106.983 22.6662 106.77 23.2244C106.561 23.7784 106.456 24.4006 106.456 25.0909C106.456 25.7898 106.563 26.4247 106.776 26.9957C106.993 27.5625 107.313 28.0142 107.735 28.3509C108.161 28.6832 108.689 28.8494 109.32 28.8494ZM117.559 33.6818C117.304 33.6818 117.076 33.6605 116.875 33.6179C116.675 33.5795 116.537 33.5412 116.46 33.5028L116.843 32.1733C117.21 32.267 117.534 32.3011 117.815 32.2756C118.096 32.25 118.346 32.1243 118.563 31.8984C118.784 31.6768 118.987 31.3168 119.17 30.8182L119.451 30.0511L115.821 20.1818H117.457L120.167 28.0057H120.27L122.98 20.1818H124.616L120.449 31.4318C120.261 31.9389 120.029 32.3587 119.752 32.6911C119.475 33.0277 119.153 33.277 118.787 33.4389C118.424 33.6009 118.015 33.6818 117.559 33.6818Z" fill="black"/>
</svg>
