<svg width="56" height="76" viewBox="0 0 56 76" fill="none" xmlns="http://www.w3.org/2000/svg">
<rect x="0.5" y="0.5" width="54.5541" height="74.3394" fill="white" stroke="black"/>
<path d="M28.3027 3C28.3027 3 22 18.467 22 37.5465C22 45.0079 22.5499 51.9169 23.2837 57.5643C24.4262 66.358 26.1831 72.0931 28.3027 72.0931V37.5465V3Z" fill="#98BD82"/>
<path d="M34.6054 37.5465C34.6054 18.467 28.3027 3 28.3027 3V37.5465V72.0931C30.4223 72.0931 32.1792 66.358 33.3218 57.5643C34.0555 51.9169 34.6054 45.0079 34.6054 37.5465Z" fill="#EA3C3C"/>
<path d="M29.4795 17.5608C29.4795 17.6768 29.4565 17.7788 29.4105 17.8668C29.3645 17.9528 29.3055 18.0278 29.2335 18.0918C29.1615 18.1558 29.0865 18.2098 29.0085 18.2538C28.9605 18.2798 28.9075 18.3098 28.8495 18.3438C28.7935 18.3758 28.7335 18.4038 28.6695 18.4278C28.6055 18.4518 28.5365 18.4638 28.4625 18.4638C28.4425 18.5678 28.4105 18.6658 28.3665 18.7578C28.3225 18.8478 28.2655 18.9278 28.1955 18.9978C28.1775 19.0158 28.1555 19.0348 28.1295 19.0548C28.1055 19.0728 28.0785 19.0898 28.0485 19.1058C28.0945 19.1218 28.1335 19.1348 28.1655 19.1448C28.1995 19.1568 28.2405 19.1708 28.2885 19.1868C28.3425 19.2048 28.3885 19.2248 28.4265 19.2468C28.4645 19.2688 28.5015 19.2908 28.5375 19.3128C28.5735 19.3348 28.6135 19.3528 28.6575 19.3668C28.7015 19.3808 28.7565 19.3878 28.8225 19.3878C28.8865 19.3878 28.9495 19.3778 29.0115 19.3578C29.0755 19.3398 29.1285 19.3108 29.1705 19.2708C29.2145 19.2328 29.2365 19.1828 29.2365 19.1208C29.2365 19.0628 29.2165 19.0208 29.1765 18.9948C29.1365 18.9668 29.0875 18.9528 29.0295 18.9528C28.9855 18.9528 28.9495 18.9728 28.9215 19.0128C28.8935 19.0508 28.8735 19.0838 28.8615 19.1118C28.8415 19.1538 28.8245 19.1748 28.8105 19.1748C28.7945 19.1748 28.7865 19.1578 28.7865 19.1238C28.7865 19.1058 28.7895 19.0858 28.7955 19.0638C28.8035 19.0418 28.8145 19.0208 28.8285 19.0008C28.8505 18.9688 28.8765 18.9428 28.9065 18.9228C28.9365 18.9028 28.9775 18.8928 29.0295 18.8928C29.1035 18.8928 29.1705 18.9138 29.2305 18.9558C29.2905 18.9958 29.3205 19.0528 29.3205 19.1268C29.3205 19.1988 29.2985 19.2618 29.2545 19.3158C29.2125 19.3698 29.1575 19.4118 29.0895 19.4418C29.0235 19.4718 28.9535 19.4868 28.8795 19.4868C28.7895 19.4868 28.7175 19.4788 28.6635 19.4628C28.6095 19.4488 28.5585 19.4298 28.5105 19.4058C28.4645 19.3838 28.4065 19.3618 28.3365 19.3398C28.2865 19.3238 28.2275 19.2978 28.1595 19.2618C28.0915 19.2278 28.0315 19.2008 27.9795 19.1808C27.9735 19.1768 27.9665 19.1728 27.9585 19.1688C27.9525 19.1668 27.9455 19.1638 27.9375 19.1598C27.8815 19.1838 27.8225 19.2028 27.7605 19.2168C27.7005 19.2328 27.6415 19.2408 27.5835 19.2408C27.5635 19.2408 27.5385 19.2328 27.5085 19.2168C27.4805 19.2028 27.4555 19.1838 27.4335 19.1598C27.4135 19.1358 27.4035 19.1098 27.4035 19.0818C27.4035 19.0638 27.4105 19.0428 27.4245 19.0188C27.4405 18.9928 27.4595 18.9708 27.4815 18.9528C27.5055 18.9348 27.5285 18.9258 27.5505 18.9258C27.5965 18.9258 27.6515 18.9378 27.7155 18.9618C27.7815 18.9858 27.8425 19.0118 27.8985 19.0398C27.9185 19.0198 27.9375 19.0008 27.9555 18.9828C27.9735 18.9628 27.9915 18.9438 28.0095 18.9258C28.0695 18.8658 28.1205 18.7948 28.1625 18.7128C28.2045 18.6308 28.2415 18.5448 28.2735 18.4548C28.1815 18.4468 28.0915 18.4318 28.0035 18.4098C27.9155 18.3858 27.8355 18.3528 27.7635 18.3108C27.6935 18.2688 27.6365 18.2168 27.5925 18.1548C27.5505 18.0908 27.5295 18.0148 27.5295 17.9268C27.5295 17.8328 27.5535 17.7448 27.6015 17.6628C27.6515 17.5788 27.7165 17.5108 27.7965 17.4588C27.8765 17.4068 27.9625 17.3808 28.0545 17.3808C28.1685 17.3808 28.2595 17.4008 28.3275 17.4408C28.3955 17.4808 28.4295 17.5578 28.4295 17.6718C28.4295 17.7258 28.4125 17.7788 28.3785 17.8308C28.3465 17.8808 28.3135 17.9168 28.2795 17.9388C28.2715 17.9428 28.2665 17.9448 28.2645 17.9448C28.2465 17.9448 28.2375 17.9348 28.2375 17.9148C28.2375 17.9028 28.2415 17.8938 28.2495 17.8878C28.2715 17.8698 28.2965 17.8408 28.3245 17.8008C28.3545 17.7608 28.3695 17.7178 28.3695 17.6718C28.3695 17.5778 28.3405 17.5158 28.2825 17.4858C28.2245 17.4558 28.1485 17.4408 28.0545 17.4408C27.9725 17.4408 27.9035 17.4648 27.8475 17.5128C27.7915 17.5608 27.7495 17.6228 27.7215 17.6988C27.6935 17.7728 27.6795 17.8528 27.6795 17.9388C27.6795 18.0448 27.7085 18.1298 27.7665 18.1938C27.8245 18.2578 27.9005 18.3058 27.9945 18.3378C28.0885 18.3678 28.1885 18.3878 28.2945 18.3978C28.3085 18.3578 28.3215 18.3188 28.3335 18.2808C28.3455 18.2428 28.3575 18.2048 28.3695 18.1668C28.4155 18.0328 28.4565 17.8988 28.4925 17.7648C28.5305 17.6288 28.5785 17.5028 28.6365 17.3868C28.6625 17.3328 28.6925 17.2798 28.7265 17.2278C28.7625 17.1738 28.8055 17.1288 28.8555 17.0928C28.9075 17.0568 28.9715 17.0388 29.0475 17.0388C29.0915 17.0388 29.1355 17.0418 29.1795 17.0478C29.2235 17.0538 29.2585 17.0668 29.2845 17.0868C29.3465 17.1368 29.3945 17.2008 29.4285 17.2788C29.4625 17.3548 29.4795 17.4488 29.4795 17.5608ZM29.2695 17.5608C29.2795 17.5208 29.2865 17.4848 29.2905 17.4528C29.2965 17.4208 29.2995 17.3918 29.2995 17.3658C29.2995 17.2898 29.2675 17.2268 29.2035 17.1768C29.1835 17.1608 29.1625 17.1518 29.1405 17.1498C29.1205 17.1458 29.0925 17.1438 29.0565 17.1438C28.9525 17.1438 28.8735 17.1718 28.8195 17.2278C28.7675 17.2818 28.7245 17.3438 28.6905 17.4138C28.6325 17.5298 28.5885 17.6538 28.5585 17.7858C28.5285 17.9158 28.5055 18.0758 28.4895 18.2658C28.4875 18.2898 28.4855 18.3138 28.4835 18.3378C28.4815 18.3598 28.4785 18.3818 28.4745 18.4038C28.5425 18.4018 28.6055 18.3898 28.6635 18.3678C28.7215 18.3438 28.7765 18.3158 28.8285 18.2838C28.8805 18.2518 28.9295 18.2228 28.9755 18.1968C29.0295 18.1668 29.0735 18.1258 29.1075 18.0738C29.1435 18.0198 29.1705 17.9618 29.1885 17.8998C29.2085 17.8358 29.2245 17.7738 29.2365 17.7138C29.2485 17.6538 29.2595 17.6028 29.2695 17.5608ZM27.8205 19.1028C27.7845 19.0848 27.7475 19.0688 27.7095 19.0548C27.6715 19.0408 27.6355 19.0338 27.6015 19.0338C27.5795 19.0338 27.5585 19.0398 27.5385 19.0518C27.5205 19.0638 27.5115 19.0788 27.5115 19.0968C27.5115 19.1228 27.5185 19.1428 27.5325 19.1568C27.5465 19.1728 27.5635 19.1808 27.5835 19.1808C27.6315 19.1808 27.6745 19.1728 27.7125 19.1568C27.7525 19.1428 27.7885 19.1248 27.8205 19.1028Z" fill="black"/>
</svg>
