<svg width="56" height="76" viewBox="0 0 56 76" fill="none" xmlns="http://www.w3.org/2000/svg">
<rect x="0.5" y="0.5" width="54.5541" height="74.3394" fill="white" stroke="black"/>
<path d="M36.5593 34.2866C36.5593 51.7039 32.6101 64.5 27.9389 64.5C23.2678 64.5 19 51.7039 19 34.2866C19 27.6597 20.0008 21.3214 21.5926 16.2453C22.3003 13.9885 23.273 12.3159 24.0367 10.8003C26.0699 6.765 27.7796 5 27.7796 5C27.7796 5 29.5817 6.71348 31.6667 10.8003C32.4194 12.2755 33.1841 14.0848 33.8716 16.277C35.4634 21.3531 36.5593 27.6597 36.5593 34.2866Z" fill="black"/>
<path d="M35.8618 35.1107C35.8618 51.0051 32.026 63.8901 27.7636 63.8901C23.5011 63.8901 19.6654 51.0051 19.6654 35.1107C19.6654 29.0632 20.5208 23.1345 21.9733 18.5023C24.3385 10.9597 27.7636 6.33124 27.7636 6.33124C27.7636 6.33124 31.1887 10.9597 33.5539 18.5023C35.0064 23.1345 35.8618 29.0632 35.8618 35.1107Z" fill="#F5C58D"/>
<line x1="27.7295" y1="63.8901" x2="27.7295" y2="6.33126" stroke="black" stroke-width="0.1"/>
<path d="M28.832 18.984C28.832 19.1387 28.8013 19.2747 28.74 19.392C28.6787 19.5067 28.6 19.6067 28.504 19.692C28.408 19.7773 28.308 19.8493 28.204 19.908C28.14 19.9427 28.0693 19.9827 27.992 20.028C27.9173 20.0707 27.8373 20.108 27.752 20.14C27.6667 20.172 27.5747 20.188 27.476 20.188C27.4493 20.3267 27.4067 20.4573 27.348 20.58C27.2893 20.7 27.2133 20.8067 27.12 20.9C27.096 20.924 27.0667 20.9493 27.032 20.976C27 21 26.964 21.0227 26.924 21.044C26.9853 21.0653 27.0373 21.0827 27.08 21.096C27.1253 21.112 27.18 21.1307 27.244 21.152C27.316 21.176 27.3773 21.2027 27.428 21.232C27.4787 21.2613 27.528 21.2907 27.576 21.32C27.624 21.3493 27.6773 21.3733 27.736 21.392C27.7947 21.4107 27.868 21.42 27.956 21.42C28.0413 21.42 28.1253 21.4067 28.208 21.38C28.2933 21.356 28.364 21.3173 28.42 21.264C28.4787 21.2133 28.508 21.1467 28.508 21.064C28.508 20.9867 28.4813 20.9307 28.428 20.896C28.3747 20.8587 28.3093 20.84 28.232 20.84C28.1733 20.84 28.1253 20.8667 28.088 20.92C28.0507 20.9707 28.024 21.0147 28.008 21.052C27.9813 21.108 27.9587 21.136 27.94 21.136C27.9187 21.136 27.908 21.1133 27.908 21.068C27.908 21.044 27.912 21.0173 27.92 20.988C27.9307 20.9587 27.9453 20.9307 27.964 20.904C27.9933 20.8613 28.028 20.8267 28.068 20.8C28.108 20.7733 28.1627 20.76 28.232 20.76C28.3307 20.76 28.42 20.788 28.5 20.844C28.58 20.8973 28.62 20.9733 28.62 21.072C28.62 21.168 28.5907 21.252 28.532 21.324C28.476 21.396 28.4027 21.452 28.312 21.492C28.224 21.532 28.1307 21.552 28.032 21.552C27.912 21.552 27.816 21.5413 27.744 21.52C27.672 21.5013 27.604 21.476 27.54 21.444C27.4787 21.4147 27.4013 21.3853 27.308 21.356C27.2413 21.3347 27.1627 21.3 27.072 21.252C26.9813 21.2067 26.9013 21.1707 26.832 21.144C26.824 21.1387 26.8147 21.1333 26.804 21.128C26.796 21.1253 26.7867 21.1213 26.776 21.116C26.7013 21.148 26.6227 21.1733 26.54 21.192C26.46 21.2133 26.3813 21.224 26.304 21.224C26.2773 21.224 26.244 21.2133 26.204 21.192C26.1667 21.1733 26.1333 21.148 26.104 21.116C26.0773 21.084 26.064 21.0493 26.064 21.012C26.064 20.988 26.0733 20.96 26.092 20.928C26.1133 20.8933 26.1387 20.864 26.168 20.84C26.2 20.816 26.2307 20.804 26.26 20.804C26.3213 20.804 26.3947 20.82 26.48 20.852C26.568 20.884 26.6493 20.9187 26.724 20.956C26.7507 20.9293 26.776 20.904 26.8 20.88C26.824 20.8533 26.848 20.828 26.872 20.804C26.952 20.724 27.02 20.6293 27.076 20.52C27.132 20.4107 27.1813 20.296 27.224 20.176C27.1013 20.1653 26.9813 20.1453 26.864 20.116C26.7467 20.084 26.64 20.04 26.544 19.984C26.4507 19.928 26.3747 19.8587 26.316 19.776C26.26 19.6907 26.232 19.5893 26.232 19.472C26.232 19.3467 26.264 19.2293 26.328 19.12C26.3947 19.008 26.4813 18.9173 26.588 18.848C26.6947 18.7787 26.8093 18.744 26.932 18.744C27.084 18.744 27.2053 18.7707 27.296 18.824C27.3867 18.8773 27.432 18.98 27.432 19.132C27.432 19.204 27.4093 19.2747 27.364 19.344C27.3213 19.4107 27.2773 19.4587 27.232 19.488C27.2213 19.4933 27.2147 19.496 27.212 19.496C27.188 19.496 27.176 19.4827 27.176 19.456C27.176 19.44 27.1813 19.428 27.192 19.42C27.2213 19.396 27.2547 19.3573 27.292 19.304C27.332 19.2507 27.352 19.1933 27.352 19.132C27.352 19.0067 27.3133 18.924 27.236 18.884C27.1587 18.844 27.0573 18.824 26.932 18.824C26.8227 18.824 26.7307 18.856 26.656 18.92C26.5813 18.984 26.5253 19.0667 26.488 19.168C26.4507 19.2667 26.432 19.3733 26.432 19.488C26.432 19.6293 26.4707 19.7427 26.548 19.828C26.6253 19.9133 26.7267 19.9773 26.852 20.02C26.9773 20.06 27.1107 20.0867 27.252 20.1C27.2707 20.0467 27.288 19.9947 27.304 19.944C27.32 19.8933 27.336 19.8427 27.352 19.792C27.4133 19.6133 27.468 19.4347 27.516 19.256C27.5667 19.0747 27.6307 18.9067 27.708 18.752C27.7427 18.68 27.7827 18.6093 27.828 18.54C27.876 18.468 27.9333 18.408 28 18.36C28.0693 18.312 28.1547 18.288 28.256 18.288C28.3147 18.288 28.3733 18.292 28.432 18.3C28.4907 18.308 28.5373 18.3253 28.572 18.352C28.6547 18.4187 28.7187 18.504 28.764 18.608C28.8093 18.7093 28.832 18.8347 28.832 18.984ZM28.552 18.984C28.5653 18.9307 28.5747 18.8827 28.58 18.84C28.588 18.7973 28.592 18.7587 28.592 18.724C28.592 18.6227 28.5493 18.5387 28.464 18.472C28.4373 18.4507 28.4093 18.4387 28.38 18.436C28.3533 18.4307 28.316 18.428 28.268 18.428C28.1293 18.428 28.024 18.4653 27.952 18.54C27.8827 18.612 27.8253 18.6947 27.78 18.788C27.7027 18.9427 27.644 19.108 27.604 19.284C27.564 19.4573 27.5333 19.6707 27.512 19.924C27.5093 19.956 27.5067 19.988 27.504 20.02C27.5013 20.0493 27.4973 20.0787 27.492 20.108C27.5827 20.1053 27.6667 20.0893 27.744 20.06C27.8213 20.028 27.8947 19.9907 27.964 19.948C28.0333 19.9053 28.0987 19.8667 28.16 19.832C28.232 19.792 28.2907 19.7373 28.336 19.668C28.384 19.596 28.42 19.5187 28.444 19.436C28.4707 19.3507 28.492 19.268 28.508 19.188C28.524 19.108 28.5387 19.04 28.552 18.984ZM26.62 21.04C26.572 21.016 26.5227 20.9947 26.472 20.976C26.4213 20.9573 26.3733 20.948 26.328 20.948C26.2987 20.948 26.2707 20.956 26.244 20.972C26.22 20.988 26.208 21.008 26.208 21.032C26.208 21.0667 26.2173 21.0933 26.236 21.112C26.2547 21.1333 26.2773 21.144 26.304 21.144C26.368 21.144 26.4253 21.1333 26.476 21.112C26.5293 21.0933 26.5773 21.0693 26.62 21.04Z" fill="black"/>
</svg>
