<svg width="55" height="75" viewBox="0 0 55 75" fill="none" xmlns="http://www.w3.org/2000/svg">
<rect x="0.5" y="0.5" width="53.9998" height="73.8435" fill="white" stroke="black"/>
<path d="M19.504 53.8339L26.9037 37.158L34.2221 53.8339C34.651 51.8444 34.9707 49.7549 35.198 47.6431L26.9037 29.9208L18.485 47.6431C18.7242 49.7549 19.0588 51.8444 19.504 53.8339Z" fill="black"/>
<path d="M20.3939 20.2204C18.7635 25.479 18 31.8833 18 38.7929C18 41.6419 18.1476 44.6647 18.485 47.6431L26.9037 29.9208L35.198 47.6431C35.5186 44.6647 35.6554 41.6419 35.6554 38.7929C35.6554 31.8833 34.7842 25.479 33.1817 20.2204C30.635 11.8636 26.9037 8 26.9037 8C26.9037 8 22.9849 11.8636 20.3939 20.2204Z" fill="black"/>
<path d="M23.9937 65.7134L26.9037 63.498L29.8804 65.7134C29.8804 65.7134 32.5349 61.6595 34.2221 53.8339L26.9037 37.158L19.504 53.8339C21.2551 61.6595 23.9937 65.7134 23.9937 65.7134Z" fill="black"/>
<path d="M20.2605 52.0557L26.886 37.1299L33.4387 52.0557C33.8227 50.275 34.109 48.4048 34.3125 46.5146L26.886 30.6522L19.348 46.5146C19.5622 48.4048 19.8619 50.275 20.2605 52.0557Z" fill="white"/>
<path d="M21.0573 21.9699C19.5975 26.6766 18.9138 32.4088 18.9138 38.5932C18.9138 41.1432 19.0459 43.8488 19.348 46.5146L26.886 30.6522L34.3125 46.5146C34.5995 43.8488 34.722 41.1432 34.722 38.5932C34.722 32.4088 33.942 26.6766 32.5071 21.9699C30.2268 14.49 26.886 9.59991 26.886 9.59991C26.886 9.59991 23.3771 14.49 21.0573 21.9699Z" fill="#E96F6F"/>
<path d="M24.2804 64.6793L26.886 62.5917L29.5512 64.6793C29.5512 64.6793 31.928 59.06 33.4387 52.0557L26.886 37.1299L20.2605 52.0557C21.8283 59.06 24.2804 64.6793 24.2804 64.6793Z" fill="#E96F6F"/>
<path d="M27.8292 21.515C27.8292 21.631 27.8062 21.733 27.7602 21.821C27.7142 21.907 27.6552 21.982 27.5832 22.046C27.5112 22.11 27.4362 22.164 27.3582 22.208C27.3102 22.234 27.2572 22.264 27.1992 22.298C27.1432 22.33 27.0832 22.358 27.0192 22.382C26.9552 22.406 26.8862 22.418 26.8122 22.418C26.7922 22.522 26.7602 22.62 26.7162 22.712C26.6722 22.802 26.6152 22.882 26.5452 22.952C26.5272 22.97 26.5052 22.989 26.4792 23.009C26.4552 23.027 26.4282 23.044 26.3982 23.06C26.4442 23.076 26.4832 23.089 26.5152 23.099C26.5492 23.111 26.5902 23.125 26.6382 23.141C26.6922 23.159 26.7382 23.179 26.7762 23.201C26.8142 23.223 26.8512 23.245 26.8872 23.267C26.9232 23.289 26.9632 23.307 27.0072 23.321C27.0512 23.335 27.1062 23.342 27.1722 23.342C27.2362 23.342 27.2992 23.332 27.3612 23.312C27.4252 23.294 27.4782 23.265 27.5202 23.225C27.5642 23.187 27.5862 23.137 27.5862 23.075C27.5862 23.017 27.5662 22.975 27.5262 22.949C27.4862 22.921 27.4372 22.907 27.3792 22.907C27.3352 22.907 27.2992 22.927 27.2712 22.967C27.2432 23.005 27.2232 23.038 27.2112 23.066C27.1912 23.108 27.1742 23.129 27.1602 23.129C27.1442 23.129 27.1362 23.112 27.1362 23.078C27.1362 23.06 27.1392 23.04 27.1452 23.018C27.1532 22.996 27.1642 22.975 27.1782 22.955C27.2002 22.923 27.2262 22.897 27.2562 22.877C27.2862 22.857 27.3272 22.847 27.3792 22.847C27.4532 22.847 27.5202 22.868 27.5802 22.91C27.6402 22.95 27.6702 23.007 27.6702 23.081C27.6702 23.153 27.6482 23.216 27.6042 23.27C27.5622 23.324 27.5072 23.366 27.4392 23.396C27.3732 23.426 27.3032 23.441 27.2292 23.441C27.1392 23.441 27.0672 23.433 27.0132 23.417C26.9592 23.403 26.9082 23.384 26.8602 23.36C26.8142 23.338 26.7562 23.316 26.6862 23.294C26.6362 23.278 26.5772 23.252 26.5092 23.216C26.4412 23.182 26.3812 23.155 26.3292 23.135C26.3232 23.131 26.3162 23.127 26.3082 23.123C26.3022 23.121 26.2952 23.118 26.2872 23.114C26.2312 23.138 26.1722 23.157 26.1102 23.171C26.0502 23.187 25.9912 23.195 25.9332 23.195C25.9132 23.195 25.8882 23.187 25.8582 23.171C25.8302 23.157 25.8052 23.138 25.7832 23.114C25.7632 23.09 25.7532 23.064 25.7532 23.036C25.7532 23.018 25.7602 22.997 25.7742 22.973C25.7902 22.947 25.8092 22.925 25.8312 22.907C25.8552 22.889 25.8782 22.88 25.9002 22.88C25.9462 22.88 26.0012 22.892 26.0652 22.916C26.1312 22.94 26.1922 22.966 26.2482 22.994C26.2682 22.974 26.2872 22.955 26.3052 22.937C26.3232 22.917 26.3412 22.898 26.3592 22.88C26.4192 22.82 26.4702 22.749 26.5122 22.667C26.5542 22.585 26.5912 22.499 26.6232 22.409C26.5312 22.401 26.4412 22.386 26.3532 22.364C26.2652 22.34 26.1852 22.307 26.1132 22.265C26.0432 22.223 25.9862 22.171 25.9422 22.109C25.9002 22.045 25.8792 21.969 25.8792 21.881C25.8792 21.787 25.9032 21.699 25.9512 21.617C26.0012 21.533 26.0662 21.465 26.1462 21.413C26.2262 21.361 26.3122 21.335 26.4042 21.335C26.5182 21.335 26.6092 21.355 26.6772 21.395C26.7452 21.435 26.7792 21.512 26.7792 21.626C26.7792 21.68 26.7622 21.733 26.7282 21.785C26.6962 21.835 26.6632 21.871 26.6292 21.893C26.6212 21.897 26.6162 21.899 26.6142 21.899C26.5962 21.899 26.5872 21.889 26.5872 21.869C26.5872 21.857 26.5912 21.848 26.5992 21.842C26.6212 21.824 26.6462 21.795 26.6742 21.755C26.7042 21.715 26.7192 21.672 26.7192 21.626C26.7192 21.532 26.6902 21.47 26.6322 21.44C26.5742 21.41 26.4982 21.395 26.4042 21.395C26.3222 21.395 26.2532 21.419 26.1972 21.467C26.1412 21.515 26.0992 21.577 26.0712 21.653C26.0432 21.727 26.0292 21.807 26.0292 21.893C26.0292 21.999 26.0582 22.084 26.1162 22.148C26.1742 22.212 26.2502 22.26 26.3442 22.292C26.4382 22.322 26.5382 22.342 26.6442 22.352C26.6582 22.312 26.6712 22.273 26.6832 22.235C26.6952 22.197 26.7072 22.159 26.7192 22.121C26.7652 21.987 26.8062 21.853 26.8422 21.719C26.8802 21.583 26.9282 21.457 26.9862 21.341C27.0122 21.287 27.0422 21.234 27.0762 21.182C27.1122 21.128 27.1552 21.083 27.2052 21.047C27.2572 21.011 27.3212 20.993 27.3972 20.993C27.4412 20.993 27.4852 20.996 27.5292 21.002C27.5732 21.008 27.6082 21.021 27.6342 21.041C27.6962 21.091 27.7442 21.155 27.7782 21.233C27.8122 21.309 27.8292 21.403 27.8292 21.515ZM27.6192 21.515C27.6292 21.475 27.6362 21.439 27.6402 21.407C27.6462 21.375 27.6492 21.346 27.6492 21.32C27.6492 21.244 27.6172 21.181 27.5532 21.131C27.5332 21.115 27.5122 21.106 27.4902 21.104C27.4702 21.1 27.4422 21.098 27.4062 21.098C27.3022 21.098 27.2232 21.126 27.1692 21.182C27.1172 21.236 27.0742 21.298 27.0402 21.368C26.9822 21.484 26.9382 21.608 26.9082 21.74C26.8782 21.87 26.8552 22.03 26.8392 22.22C26.8372 22.244 26.8352 22.268 26.8332 22.292C26.8312 22.314 26.8282 22.336 26.8242 22.358C26.8922 22.356 26.9552 22.344 27.0132 22.322C27.0712 22.298 27.1262 22.27 27.1782 22.238C27.2302 22.206 27.2792 22.177 27.3252 22.151C27.3792 22.121 27.4232 22.08 27.4572 22.028C27.4932 21.974 27.5202 21.916 27.5382 21.854C27.5582 21.79 27.5742 21.728 27.5862 21.668C27.5982 21.608 27.6092 21.557 27.6192 21.515ZM26.1702 23.057C26.1342 23.039 26.0972 23.023 26.0592 23.009C26.0212 22.995 25.9852 22.988 25.9512 22.988C25.9292 22.988 25.9082 22.994 25.8882 23.006C25.8702 23.018 25.8612 23.033 25.8612 23.051C25.8612 23.077 25.8682 23.097 25.8822 23.111C25.8962 23.127 25.9132 23.135 25.9332 23.135C25.9812 23.135 26.0242 23.127 26.0622 23.111C26.1022 23.097 26.1382 23.079 26.1702 23.057Z" fill="black"/>
</svg>
