<svg width="89" height="419" viewBox="0 0 89 419" fill="none" xmlns="http://www.w3.org/2000/svg">
<path d="M21.37 19.5662V388.529C22.9025 392.926 24.4958 396.9 26.1427 400.415V11.5639C24.4659 13.8545 22.8598 16.5137 21.37 19.5662Z" fill="#DD0303"/>
<path fill-rule="evenodd" clip-rule="evenodd" d="M88.9757 209.5C88.9757 285.623 80.3542 352.264 67.4587 388.949V19.5662C68.6479 22.0153 69.7648 24.7176 70.7867 27.6857C83.4871 64.5762 88.9757 134.071 88.9757 209.5ZM62.833 11.7229C56.9465 3.54153 50.1824 0 44.4879 0C38.8304 0 32.0486 3.49561 26.1427 11.5639V400.415C31.7361 412.353 37.9471 419 44.4879 419C51.0286 419 57.2397 412.353 62.833 400.415V11.7229ZM0 209.5C0 285.333 8.55599 351.756 21.37 388.529V19.5662C20.1747 22.0153 19.0543 24.7176 18.0324 27.6857C5.33202 64.5762 0 134.071 0 209.5Z" fill="#E8E6E6"/>
<path d="M62.833 11.7229V400.415C64.4273 397.012 65.9714 393.18 67.4587 388.949V19.5662C66.0106 16.5841 64.4551 13.9773 62.833 11.7229Z" fill="#DD0303"/>
<path d="M55.5242 93.4222C55.5242 94.5822 55.2942 95.6022 54.8342 96.4822C54.3742 97.3422 53.7842 98.0922 53.0642 98.7322C52.3442 99.3722 51.5942 99.9122 50.8142 100.352C50.3342 100.612 49.8042 100.912 49.2242 101.252C48.6642 101.572 48.0642 101.852 47.4242 102.092C46.7842 102.332 46.0942 102.452 45.3542 102.452C45.1542 103.492 44.8342 104.472 44.3942 105.392C43.9542 106.292 43.3842 107.092 42.6842 107.792C42.5042 107.972 42.2842 108.162 42.0242 108.362C41.7842 108.542 41.5142 108.712 41.2142 108.872C41.6742 109.032 42.0642 109.162 42.3842 109.262C42.7242 109.382 43.1342 109.522 43.6142 109.682C44.1542 109.862 44.6142 110.062 44.9942 110.282C45.3742 110.502 45.7442 110.722 46.1042 110.942C46.4642 111.162 46.8642 111.342 47.3042 111.482C47.7442 111.622 48.2942 111.692 48.9542 111.692C49.5942 111.692 50.2242 111.592 50.8442 111.392C51.4842 111.212 52.0142 110.922 52.4342 110.522C52.8742 110.142 53.0942 109.642 53.0942 109.022C53.0942 108.442 52.8942 108.022 52.4942 107.762C52.0942 107.482 51.6042 107.342 51.0242 107.342C50.5842 107.342 50.2242 107.542 49.9442 107.942C49.6642 108.322 49.4642 108.652 49.3442 108.932C49.1442 109.352 48.9742 109.562 48.8342 109.562C48.6742 109.562 48.5942 109.392 48.5942 109.052C48.5942 108.872 48.6242 108.672 48.6842 108.452C48.7642 108.232 48.8742 108.022 49.0142 107.822C49.2342 107.502 49.4942 107.242 49.7942 107.042C50.0942 106.842 50.5042 106.742 51.0242 106.742C51.7642 106.742 52.4342 106.952 53.0342 107.372C53.6342 107.772 53.9342 108.342 53.9342 109.082C53.9342 109.802 53.7142 110.432 53.2742 110.972C52.8542 111.512 52.3042 111.932 51.6242 112.232C50.9642 112.532 50.2642 112.682 49.5242 112.682C48.6242 112.682 47.9042 112.602 47.3642 112.442C46.8242 112.302 46.3142 112.112 45.8342 111.872C45.3742 111.652 44.7942 111.432 44.0942 111.212C43.5942 111.052 43.0042 110.792 42.3242 110.432C41.6442 110.092 41.0442 109.822 40.5242 109.622C40.4642 109.582 40.3942 109.542 40.3142 109.502C40.2542 109.482 40.1842 109.452 40.1042 109.412C39.5442 109.652 38.9542 109.842 38.3342 109.982C37.7342 110.142 37.1442 110.222 36.5642 110.222C36.3642 110.222 36.1142 110.142 35.8142 109.982C35.5342 109.842 35.2842 109.652 35.0642 109.412C34.8642 109.172 34.7642 108.912 34.7642 108.632C34.7642 108.452 34.8342 108.242 34.9742 108.002C35.1342 107.742 35.3242 107.522 35.5442 107.342C35.7842 107.162 36.0142 107.072 36.2342 107.072C36.6942 107.072 37.2442 107.192 37.8842 107.432C38.5442 107.672 39.1542 107.932 39.7142 108.212C39.9142 108.012 40.1042 107.822 40.2842 107.642C40.4642 107.442 40.6442 107.252 40.8242 107.072C41.4242 106.472 41.9342 105.762 42.3542 104.942C42.7742 104.122 43.1442 103.262 43.4642 102.362C42.5442 102.282 41.6442 102.132 40.7642 101.912C39.8842 101.672 39.0842 101.342 38.3642 100.922C37.6642 100.502 37.0942 99.9822 36.6542 99.3622C36.2342 98.7222 36.0242 97.9622 36.0242 97.0822C36.0242 96.1422 36.2642 95.2622 36.7442 94.4422C37.2442 93.6022 37.8942 92.9222 38.6942 92.4022C39.4942 91.8822 40.3542 91.6222 41.2742 91.6222C42.4142 91.6222 43.3242 91.8222 44.0042 92.2222C44.6842 92.6222 45.0242 93.3922 45.0242 94.5322C45.0242 95.0722 44.8542 95.6022 44.5142 96.1222C44.1942 96.6222 43.8642 96.9822 43.5242 97.2022C43.4442 97.2422 43.3942 97.2622 43.3742 97.2622C43.1942 97.2622 43.1042 97.1622 43.1042 96.9622C43.1042 96.8422 43.1442 96.7522 43.2242 96.6922C43.4442 96.5122 43.6942 96.2222 43.9742 95.8222C44.2742 95.4222 44.4242 94.9922 44.4242 94.5322C44.4242 93.5922 44.1342 92.9722 43.5542 92.6722C42.9742 92.3722 42.2142 92.2222 41.2742 92.2222C40.4542 92.2222 39.7642 92.4622 39.2042 92.9422C38.6442 93.4222 38.2242 94.0422 37.9442 94.8022C37.6642 95.5422 37.5242 96.3422 37.5242 97.2022C37.5242 98.2622 37.8142 99.1122 38.3942 99.7522C38.9742 100.392 39.7342 100.872 40.6742 101.192C41.6142 101.492 42.6142 101.692 43.6742 101.792C43.8142 101.392 43.9442 101.002 44.0642 100.622C44.1842 100.242 44.3042 99.8622 44.4242 99.4822C44.8842 98.1422 45.2942 96.8022 45.6542 95.4622C46.0342 94.1022 46.5142 92.8422 47.0942 91.6822C47.3542 91.1422 47.6542 90.6122 47.9942 90.0922C48.3542 89.5522 48.7842 89.1022 49.2842 88.7422C49.8042 88.3822 50.4442 88.2022 51.2042 88.2022C51.6442 88.2022 52.0842 88.2322 52.5242 88.2922C52.9642 88.3522 53.3142 88.4822 53.5742 88.6822C54.1942 89.1822 54.6742 89.8222 55.0142 90.6022C55.3542 91.3622 55.5242 92.3022 55.5242 93.4222ZM53.4242 93.4222C53.5242 93.0222 53.5942 92.6622 53.6342 92.3422C53.6942 92.0222 53.7242 91.7322 53.7242 91.4722C53.7242 90.7122 53.4042 90.0822 52.7642 89.5822C52.5642 89.4222 52.3542 89.3322 52.1342 89.3122C51.9342 89.2722 51.6542 89.2522 51.2942 89.2522C50.2542 89.2522 49.4642 89.5322 48.9242 90.0922C48.4042 90.6322 47.9742 91.2522 47.6342 91.9522C47.0542 93.1122 46.6142 94.3522 46.3142 95.6722C46.0142 96.9722 45.7842 98.5722 45.6242 100.472C45.6042 100.712 45.5842 100.952 45.5642 101.192C45.5442 101.412 45.5142 101.632 45.4742 101.852C46.1542 101.832 46.7842 101.712 47.3642 101.492C47.9442 101.252 48.4942 100.972 49.0142 100.652C49.5342 100.332 50.0242 100.042 50.4842 99.7822C51.0242 99.4822 51.4642 99.0722 51.8042 98.5522C52.1642 98.0122 52.4342 97.4322 52.6142 96.8122C52.8142 96.1722 52.9742 95.5522 53.0942 94.9522C53.2142 94.3522 53.3242 93.8422 53.4242 93.4222ZM38.9342 108.842C38.5742 108.662 38.2042 108.502 37.8242 108.362C37.4442 108.222 37.0842 108.152 36.7442 108.152C36.5242 108.152 36.3142 108.212 36.1142 108.332C35.9342 108.452 35.8442 108.602 35.8442 108.782C35.8442 109.042 35.9142 109.242 36.0542 109.382C36.1942 109.542 36.3642 109.622 36.5642 109.622C37.0442 109.622 37.4742 109.542 37.8542 109.382C38.2542 109.242 38.6142 109.062 38.9342 108.842Z" fill="black"/>
</svg>
