<svg width="56" height="76" viewBox="0 0 56 76" fill="none" xmlns="http://www.w3.org/2000/svg">
<rect x="0.5" y="0.5" width="54.5541" height="74.3394" fill="white" stroke="black"/>
<path d="M23.7856 6.21623V66.8652C24.0571 67.5881 24.3393 68.2412 24.6311 68.819V4.90083C24.334 5.27736 24.0495 5.71448 23.7856 6.21623Z" fill="#DD0303"/>
<path fill-rule="evenodd" clip-rule="evenodd" d="M35.7616 37.437C35.7616 49.9499 34.2344 60.904 31.95 66.9343V6.21623C32.1607 6.61881 32.3585 7.063 32.5395 7.5509C34.7894 13.6148 35.7616 25.0382 35.7616 37.437ZM31.1306 4.92697C30.0878 3.58215 28.8896 3 27.8808 3C26.8786 3 25.6773 3.5746 24.6311 4.90083V68.819C25.6219 70.7813 26.7222 71.874 27.8808 71.874C29.0395 71.874 30.1397 70.7813 31.1306 68.819V4.92697ZM20 37.437C20 49.9022 21.5157 60.8206 23.7856 66.8652V6.21623C23.5739 6.61881 23.3754 7.063 23.1944 7.5509C20.9445 13.6148 20 25.0382 20 37.437Z" fill="#E8E6E6"/>
<path d="M31.1306 4.92697V68.819C31.413 68.2597 31.6865 67.6297 31.95 66.9343V6.21623C31.6935 5.72605 31.4179 5.29755 31.1306 4.92697Z" fill="#DD0303"/>
<path d="M29.8248 17.3592C29.8248 17.5139 29.7941 17.6499 29.7328 17.7672C29.6715 17.8819 29.5928 17.9819 29.4968 18.0672C29.4008 18.1526 29.3008 18.2246 29.1968 18.2832C29.1328 18.3179 29.0621 18.3579 28.9848 18.4032C28.9101 18.4459 28.8301 18.4832 28.7448 18.5152C28.6595 18.5472 28.5675 18.5632 28.4688 18.5632C28.4421 18.7019 28.3995 18.8326 28.3408 18.9552C28.2821 19.0752 28.2061 19.1819 28.1128 19.2752C28.0888 19.2992 28.0595 19.3246 28.0248 19.3512C27.9928 19.3752 27.9568 19.3979 27.9168 19.4192C27.9781 19.4406 28.0301 19.4579 28.0728 19.4712C28.1181 19.4872 28.1728 19.5059 28.2368 19.5272C28.3088 19.5512 28.3701 19.5779 28.4208 19.6072C28.4715 19.6366 28.5208 19.6659 28.5688 19.6952C28.6168 19.7246 28.6701 19.7486 28.7288 19.7672C28.7875 19.7859 28.8608 19.7952 28.9488 19.7952C29.0341 19.7952 29.1181 19.7819 29.2008 19.7552C29.2861 19.7312 29.3568 19.6926 29.4128 19.6392C29.4715 19.5886 29.5008 19.5219 29.5008 19.4392C29.5008 19.3619 29.4741 19.3059 29.4208 19.2712C29.3675 19.2339 29.3021 19.2152 29.2248 19.2152C29.1661 19.2152 29.1181 19.2419 29.0808 19.2952C29.0435 19.3459 29.0168 19.3899 29.0008 19.4272C28.9741 19.4832 28.9515 19.5112 28.9328 19.5112C28.9115 19.5112 28.9008 19.4886 28.9008 19.4432C28.9008 19.4192 28.9048 19.3926 28.9128 19.3632C28.9235 19.3339 28.9381 19.3059 28.9568 19.2792C28.9861 19.2366 29.0208 19.2019 29.0608 19.1752C29.1008 19.1486 29.1555 19.1352 29.2248 19.1352C29.3235 19.1352 29.4128 19.1632 29.4928 19.2192C29.5728 19.2726 29.6128 19.3486 29.6128 19.4472C29.6128 19.5432 29.5835 19.6272 29.5248 19.6992C29.4688 19.7712 29.3955 19.8272 29.3048 19.8672C29.2168 19.9072 29.1235 19.9272 29.0248 19.9272C28.9048 19.9272 28.8088 19.9166 28.7368 19.8952C28.6648 19.8766 28.5968 19.8512 28.5328 19.8192C28.4715 19.7899 28.3941 19.7606 28.3008 19.7312C28.2341 19.7099 28.1555 19.6752 28.0648 19.6272C27.9741 19.5819 27.8941 19.5459 27.8248 19.5192C27.8168 19.5139 27.8075 19.5086 27.7968 19.5032C27.7888 19.5006 27.7795 19.4966 27.7688 19.4912C27.6941 19.5232 27.6155 19.5486 27.5328 19.5672C27.4528 19.5886 27.3741 19.5992 27.2968 19.5992C27.2701 19.5992 27.2368 19.5886 27.1968 19.5672C27.1595 19.5486 27.1261 19.5232 27.0968 19.4912C27.0701 19.4592 27.0568 19.4246 27.0568 19.3872C27.0568 19.3632 27.0661 19.3352 27.0848 19.3032C27.1061 19.2686 27.1315 19.2392 27.1608 19.2152C27.1928 19.1912 27.2235 19.1792 27.2528 19.1792C27.3141 19.1792 27.3875 19.1952 27.4728 19.2272C27.5608 19.2592 27.6421 19.2939 27.7168 19.3312C27.7435 19.3046 27.7688 19.2792 27.7928 19.2552C27.8168 19.2286 27.8408 19.2032 27.8648 19.1792C27.9448 19.0992 28.0128 19.0046 28.0688 18.8952C28.1248 18.7859 28.1741 18.6712 28.2168 18.5512C28.0941 18.5406 27.9741 18.5206 27.8568 18.4912C27.7395 18.4592 27.6328 18.4152 27.5368 18.3592C27.4435 18.3032 27.3675 18.2339 27.3088 18.1512C27.2528 18.0659 27.2248 17.9646 27.2248 17.8472C27.2248 17.7219 27.2568 17.6046 27.3208 17.4952C27.3875 17.3832 27.4741 17.2926 27.5808 17.2232C27.6875 17.1539 27.8021 17.1192 27.9248 17.1192C28.0768 17.1192 28.1981 17.1459 28.2888 17.1992C28.3795 17.2526 28.4248 17.3552 28.4248 17.5072C28.4248 17.5792 28.4021 17.6499 28.3568 17.7192C28.3141 17.7859 28.2701 17.8339 28.2248 17.8632C28.2141 17.8686 28.2075 17.8712 28.2048 17.8712C28.1808 17.8712 28.1688 17.8579 28.1688 17.8312C28.1688 17.8152 28.1741 17.8032 28.1848 17.7952C28.2141 17.7712 28.2475 17.7326 28.2848 17.6792C28.3248 17.6259 28.3448 17.5686 28.3448 17.5072C28.3448 17.3819 28.3061 17.2992 28.2288 17.2592C28.1515 17.2192 28.0501 17.1992 27.9248 17.1992C27.8155 17.1992 27.7235 17.2312 27.6488 17.2952C27.5741 17.3592 27.5181 17.4419 27.4808 17.5432C27.4435 17.6419 27.4248 17.7486 27.4248 17.8632C27.4248 18.0046 27.4635 18.1179 27.5408 18.2032C27.6181 18.2886 27.7195 18.3526 27.8448 18.3952C27.9701 18.4352 28.1035 18.4619 28.2448 18.4752C28.2635 18.4219 28.2808 18.3699 28.2968 18.3192C28.3128 18.2686 28.3288 18.2179 28.3448 18.1672C28.4061 17.9886 28.4608 17.8099 28.5088 17.6312C28.5595 17.4499 28.6235 17.2819 28.7008 17.1272C28.7355 17.0552 28.7755 16.9846 28.8208 16.9152C28.8688 16.8432 28.9261 16.7832 28.9928 16.7352C29.0621 16.6872 29.1475 16.6632 29.2488 16.6632C29.3075 16.6632 29.3661 16.6672 29.4248 16.6752C29.4835 16.6832 29.5301 16.7006 29.5648 16.7272C29.6475 16.7939 29.7115 16.8792 29.7568 16.9832C29.8021 17.0846 29.8248 17.2099 29.8248 17.3592ZM29.5448 17.3592C29.5581 17.3059 29.5675 17.2579 29.5728 17.2152C29.5808 17.1726 29.5848 17.1339 29.5848 17.0992C29.5848 16.9979 29.5421 16.9139 29.4568 16.8472C29.4301 16.8259 29.4021 16.8139 29.3728 16.8112C29.3461 16.8059 29.3088 16.8032 29.2608 16.8032C29.1221 16.8032 29.0168 16.8406 28.9448 16.9152C28.8755 16.9872 28.8181 17.0699 28.7728 17.1632C28.6955 17.3179 28.6368 17.4832 28.5968 17.6592C28.5568 17.8326 28.5261 18.0459 28.5048 18.2992C28.5021 18.3312 28.4995 18.3632 28.4968 18.3952C28.4941 18.4246 28.4901 18.4539 28.4848 18.4832C28.5755 18.4806 28.6595 18.4646 28.7368 18.4352C28.8141 18.4032 28.8875 18.3659 28.9568 18.3232C29.0261 18.2806 29.0915 18.2419 29.1528 18.2072C29.2248 18.1672 29.2835 18.1126 29.3288 18.0432C29.3768 17.9712 29.4128 17.8939 29.4368 17.8112C29.4635 17.7259 29.4848 17.6432 29.5008 17.5632C29.5168 17.4832 29.5315 17.4152 29.5448 17.3592ZM27.6128 19.4152C27.5648 19.3912 27.5155 19.3699 27.4648 19.3512C27.4141 19.3326 27.3661 19.3232 27.3208 19.3232C27.2915 19.3232 27.2635 19.3312 27.2368 19.3472C27.2128 19.3632 27.2008 19.3832 27.2008 19.4072C27.2008 19.4419 27.2101 19.4686 27.2288 19.4872C27.2475 19.5086 27.2701 19.5192 27.2968 19.5192C27.3608 19.5192 27.4181 19.5086 27.4688 19.4872C27.5221 19.4686 27.5701 19.4446 27.6128 19.4152Z" fill="black"/>
</svg>
