<svg width="197" height="46" viewBox="0 0 197 46" fill="none" xmlns="http://www.w3.org/2000/svg">
<rect x="0.5" y="0.5" width="196" height="45" fill="white" stroke="black"/>
<path d="M63.5852 30V16.9091H65.1705V28.5938H71.2557V30H63.5852ZM77.6222 30.2045C76.6761 30.2045 75.8601 29.9957 75.174 29.5781C74.4922 29.1562 73.9659 28.5682 73.5952 27.8139C73.2287 27.0554 73.0455 26.1733 73.0455 25.1676C73.0455 24.1619 73.2287 23.2756 73.5952 22.5085C73.9659 21.7372 74.4815 21.1364 75.142 20.706C75.8068 20.2713 76.5824 20.054 77.4688 20.054C77.9801 20.054 78.4851 20.1392 78.9837 20.3097C79.4822 20.4801 79.9361 20.7571 80.3452 21.1406C80.7543 21.5199 81.0803 22.0227 81.3232 22.6491C81.5661 23.2756 81.6875 24.0469 81.6875 24.9631V25.6023H74.1193V24.2983H80.1534C80.1534 23.7443 80.0426 23.25 79.821 22.8153C79.6037 22.3807 79.2926 22.0376 78.8878 21.7862C78.4872 21.5348 78.0142 21.4091 77.4688 21.4091C76.8679 21.4091 76.348 21.5582 75.9091 21.8565C75.4744 22.1506 75.1399 22.5341 74.9055 23.0071C74.6712 23.4801 74.554 23.9872 74.554 24.5284V25.3977C74.554 26.1392 74.6818 26.7678 74.9375 27.2834C75.1974 27.7947 75.5575 28.1847 76.0178 28.4531C76.478 28.7173 77.0128 28.8494 77.6222 28.8494C78.0185 28.8494 78.3764 28.794 78.696 28.6832C79.0199 28.5682 79.299 28.3977 79.5334 28.1719C79.7678 27.9418 79.9489 27.6562 80.0767 27.3153L81.5341 27.7244C81.3807 28.2188 81.1229 28.6534 80.7607 29.0284C80.3984 29.3991 79.951 29.6889 79.4183 29.8977C78.8857 30.1023 78.2869 30.2045 77.6222 30.2045ZM88.2521 20.1818V21.4602H83.1641V20.1818H88.2521ZM84.647 17.8295H86.1555V27.1875C86.1555 27.6136 86.2173 27.9332 86.3409 28.1463C86.4688 28.3551 86.6307 28.4957 86.8267 28.5682C87.027 28.6364 87.2379 28.6705 87.4595 28.6705C87.6257 28.6705 87.7621 28.6619 87.8686 28.6449C87.9751 28.6236 88.0604 28.6065 88.1243 28.5938L88.4311 29.9489C88.3288 29.9872 88.1861 30.0256 88.0028 30.0639C87.8196 30.1065 87.5874 30.1278 87.3061 30.1278C86.88 30.1278 86.4624 30.0362 86.0533 29.853C85.6484 29.6697 85.3118 29.3906 85.0433 29.0156C84.7791 28.6406 84.647 28.1676 84.647 27.5966V17.8295ZM93.9474 18.8523L91.9531 15.8864H93.7173L95.277 18.8523H93.9474ZM106.423 22.3807L105.068 22.7642C104.983 22.5384 104.857 22.3189 104.691 22.1058C104.529 21.8885 104.307 21.7095 104.026 21.5689C103.745 21.4283 103.385 21.358 102.946 21.358C102.345 21.358 101.844 21.4964 101.444 21.7734C101.047 22.0462 100.849 22.3935 100.849 22.8153C100.849 23.1903 100.986 23.4865 101.258 23.7038C101.531 23.9212 101.957 24.1023 102.537 24.2472L103.994 24.6051C104.872 24.8182 105.526 25.1442 105.956 25.5831C106.387 26.0178 106.602 26.5781 106.602 27.2642C106.602 27.8267 106.44 28.3295 106.116 28.7727C105.797 29.2159 105.349 29.5653 104.774 29.821C104.199 30.0767 103.53 30.2045 102.767 30.2045C101.765 30.2045 100.937 29.9872 100.28 29.5526C99.6241 29.1179 99.2086 28.483 99.0339 27.6477L100.466 27.2898C100.602 27.8182 100.86 28.2145 101.239 28.4787C101.623 28.7429 102.123 28.875 102.741 28.875C103.444 28.875 104.003 28.7259 104.416 28.4276C104.834 28.125 105.042 27.7628 105.042 27.3409C105.042 27 104.923 26.7145 104.684 26.4844C104.446 26.25 104.079 26.0753 103.585 25.9602L101.949 25.5767C101.05 25.3636 100.389 25.0334 99.9672 24.5859C99.5495 24.1342 99.3407 23.5696 99.3407 22.892C99.3407 22.3381 99.4963 21.848 99.8074 21.4219C100.123 20.9957 100.551 20.6612 101.092 20.4183C101.638 20.1754 102.256 20.054 102.946 20.054C103.917 20.054 104.68 20.267 105.234 20.6932C105.792 21.1193 106.189 21.6818 106.423 22.3807ZM117.898 33.8864C117.17 33.8864 116.543 33.7926 116.019 33.6051C115.495 33.4219 115.058 33.179 114.709 32.8764C114.364 32.5781 114.089 32.2585 113.884 31.9176L115.086 31.0739C115.222 31.2528 115.395 31.4574 115.604 31.6875C115.813 31.9219 116.098 32.1243 116.46 32.2947C116.827 32.4695 117.306 32.5568 117.898 32.5568C118.691 32.5568 119.345 32.3651 119.861 31.9815C120.376 31.598 120.634 30.9972 120.634 30.179V28.1847H120.506C120.396 28.3636 120.238 28.5852 120.033 28.8494C119.833 29.1094 119.543 29.3416 119.164 29.5462C118.789 29.7464 118.282 29.8466 117.643 29.8466C116.85 29.8466 116.138 29.6591 115.508 29.2841C114.881 28.9091 114.385 28.3636 114.018 27.6477C113.656 26.9318 113.475 26.0625 113.475 25.0398C113.475 24.0341 113.652 23.1584 114.006 22.4126C114.359 21.6626 114.852 21.0831 115.482 20.674C116.113 20.2607 116.842 20.054 117.668 20.054C118.308 20.054 118.815 20.1605 119.19 20.3736C119.569 20.5824 119.859 20.821 120.059 21.0895C120.263 21.3537 120.421 21.571 120.532 21.7415H120.685V20.1818H122.143V30.2812C122.143 31.125 121.951 31.8111 121.567 32.3395C121.188 32.8722 120.677 33.2621 120.033 33.5092C119.394 33.7607 118.683 33.8864 117.898 33.8864ZM117.847 28.4915C118.452 28.4915 118.964 28.353 119.381 28.076C119.799 27.799 120.116 27.4006 120.334 26.8807C120.551 26.3608 120.66 25.7386 120.66 25.0142C120.66 24.3068 120.553 23.6825 120.34 23.1413C120.127 22.6001 119.812 22.1761 119.394 21.8693C118.977 21.5625 118.461 21.4091 117.847 21.4091C117.208 21.4091 116.675 21.571 116.249 21.8949C115.827 22.2187 115.51 22.6534 115.297 23.1989C115.088 23.7443 114.984 24.3494 114.984 25.0142C114.984 25.696 115.09 26.299 115.303 26.8232C115.521 27.343 115.84 27.7521 116.262 28.0504C116.688 28.3445 117.217 28.4915 117.847 28.4915ZM128.893 30.2045C128.006 30.2045 127.229 29.9936 126.56 29.5717C125.895 29.1499 125.375 28.5597 125 27.8011C124.629 27.0426 124.444 26.1562 124.444 25.142C124.444 24.1193 124.629 23.2266 125 22.4638C125.375 21.701 125.895 21.1087 126.56 20.6868C127.229 20.2649 128.006 20.054 128.893 20.054C129.779 20.054 130.555 20.2649 131.219 20.6868C131.888 21.1087 132.408 21.701 132.779 22.4638C133.154 23.2266 133.342 24.1193 133.342 25.142C133.342 26.1562 133.154 27.0426 132.779 27.8011C132.408 28.5597 131.888 29.1499 131.219 29.5717C130.555 29.9936 129.779 30.2045 128.893 30.2045ZM128.893 28.8494C129.566 28.8494 130.12 28.6768 130.555 28.3317C130.989 27.9865 131.311 27.5327 131.52 26.9702C131.729 26.4077 131.833 25.7983 131.833 25.142C131.833 24.4858 131.729 23.8743 131.52 23.3075C131.311 22.7408 130.989 22.2827 130.555 21.9332C130.12 21.5838 129.566 21.4091 128.893 21.4091C128.219 21.4091 127.665 21.5838 127.231 21.9332C126.796 22.2827 126.474 22.7408 126.266 23.3075C126.057 23.8743 125.952 24.4858 125.952 25.142C125.952 25.7983 126.057 26.4077 126.266 26.9702C126.474 27.5327 126.796 27.9865 127.231 28.3317C127.665 28.6768 128.219 28.8494 128.893 28.8494Z" fill="#1E1E1E"/>
</svg>
