<svg width="110" height="373" viewBox="0 0 110 373" fill="none" xmlns="http://www.w3.org/2000/svg">
<path d="M109.085 181.939C109.085 290.143 83.5615 372.542 54.5424 372.542C25.5233 372.542 0 290.143 0 181.939C0 140.771 6.2171 101.394 16.1061 69.8601C20.5028 55.84 26.5455 45.4492 31.2898 36.0334C43.9211 10.9649 54.5424 0 54.5424 0C54.5424 0 65.7376 10.6448 78.6905 36.0334C83.3662 45.1982 88.1171 56.438 92.3879 70.057C102.277 101.591 109.085 140.771 109.085 181.939Z" fill="black"/>
<path d="M104.753 187.059C104.753 285.801 80.9239 365.847 54.444 365.847C27.9641 365.847 4.13501 285.801 4.13501 187.059C4.13501 149.49 9.44876 112.658 18.4725 83.8811C33.1658 37.0236 54.444 8.26996 54.444 8.26996C54.444 8.26996 75.7221 37.0237 90.4154 83.8811C99.4392 112.658 104.753 149.49 104.753 187.059Z" fill="#F5C58D"/>
<line x1="54.1925" y1="365.847" x2="54.1925" y2="8.26993" stroke="black" stroke-width="0.7"/>
<path d="M70.6377 97.9643C70.6377 99.5109 70.3311 100.871 69.7178 102.044C69.1044 103.191 68.3178 104.191 67.3578 105.044C66.3978 105.898 65.3977 106.618 64.3577 107.204C63.7177 107.551 63.0111 107.951 62.2378 108.404C61.4911 108.831 60.6911 109.204 59.8377 109.524C58.9844 109.844 58.0644 110.004 57.0777 110.004C56.8111 111.391 56.3844 112.698 55.7977 113.924C55.2111 115.124 54.4511 116.191 53.5177 117.124C53.2777 117.364 52.9844 117.618 52.6377 117.884C52.3177 118.124 51.9577 118.351 51.5577 118.564C52.1711 118.778 52.6911 118.951 53.1177 119.084C53.5711 119.244 54.1177 119.431 54.7577 119.644C55.4778 119.884 56.0911 120.151 56.5977 120.444C57.1044 120.738 57.5977 121.031 58.0777 121.324C58.5578 121.618 59.0911 121.858 59.6777 122.044C60.2644 122.231 60.9978 122.324 61.8777 122.324C62.7311 122.324 63.5711 122.191 64.3978 121.924C65.2511 121.684 65.9578 121.298 66.5177 120.764C67.1044 120.258 67.3978 119.591 67.3978 118.764C67.3978 117.991 67.1311 117.431 66.5978 117.084C66.0644 116.711 65.4111 116.524 64.6378 116.524C64.0511 116.524 63.5711 116.791 63.1977 117.324C62.8244 117.831 62.5577 118.271 62.3978 118.644C62.1311 119.204 61.9044 119.484 61.7177 119.484C61.5044 119.484 61.3978 119.258 61.3978 118.804C61.3978 118.564 61.4378 118.298 61.5177 118.004C61.6244 117.711 61.7711 117.431 61.9578 117.164C62.2511 116.738 62.5978 116.391 62.9977 116.124C63.3977 115.858 63.9444 115.724 64.6378 115.724C65.6244 115.724 66.5177 116.004 67.3177 116.564C68.1177 117.098 68.5178 117.858 68.5178 118.844C68.5178 119.804 68.2244 120.644 67.6377 121.364C67.0778 122.084 66.3444 122.644 65.4377 123.044C64.5577 123.444 63.6244 123.644 62.6377 123.644C61.4378 123.644 60.4778 123.538 59.7577 123.324C59.0377 123.138 58.3577 122.884 57.7177 122.564C57.1044 122.271 56.3311 121.978 55.3977 121.684C54.7311 121.471 53.9444 121.124 53.0377 120.644C52.1311 120.191 51.3311 119.831 50.6377 119.564C50.5577 119.511 50.4644 119.458 50.3577 119.404C50.2777 119.378 50.1844 119.338 50.0777 119.284C49.3311 119.604 48.5444 119.858 47.7177 120.044C46.9177 120.258 46.1311 120.364 45.3577 120.364C45.0911 120.364 44.7577 120.258 44.3577 120.044C43.9844 119.858 43.6511 119.604 43.3577 119.284C43.0911 118.964 42.9577 118.618 42.9577 118.244C42.9577 118.004 43.0511 117.724 43.2377 117.404C43.4511 117.058 43.7044 116.764 43.9977 116.524C44.3177 116.284 44.6244 116.164 44.9177 116.164C45.5311 116.164 46.2644 116.324 47.1177 116.644C47.9977 116.964 48.8111 117.311 49.5577 117.684C49.8244 117.418 50.0777 117.164 50.3177 116.924C50.5577 116.658 50.7977 116.404 51.0377 116.164C51.8377 115.364 52.5177 114.418 53.0777 113.324C53.6377 112.231 54.1311 111.084 54.5577 109.884C53.3311 109.778 52.1311 109.578 50.9577 109.284C49.7844 108.964 48.7177 108.524 47.7577 107.964C46.8244 107.404 46.0644 106.711 45.4777 105.884C44.9177 105.031 44.6377 104.018 44.6377 102.844C44.6377 101.591 44.9577 100.418 45.5977 99.3243C46.2644 98.2043 47.1311 97.2976 48.1977 96.6043C49.2644 95.9109 50.4111 95.5643 51.6377 95.5643C53.1577 95.5643 54.3711 95.8309 55.2777 96.3643C56.1844 96.8976 56.6377 97.9243 56.6377 99.4443C56.6377 100.164 56.4111 100.871 55.9577 101.564C55.5311 102.231 55.0911 102.711 54.6378 103.004C54.5311 103.058 54.4644 103.084 54.4377 103.084C54.1977 103.084 54.0777 102.951 54.0777 102.684C54.0777 102.524 54.1311 102.404 54.2377 102.324C54.5311 102.084 54.8644 101.698 55.2377 101.164C55.6377 100.631 55.8378 100.058 55.8378 99.4443C55.8378 98.1909 55.4511 97.3643 54.6777 96.9643C53.9044 96.5643 52.8911 96.3643 51.6377 96.3643C50.5444 96.3643 49.6244 96.6843 48.8777 97.3243C48.1311 97.9643 47.5711 98.7909 47.1977 99.8043C46.8244 100.791 46.6377 101.858 46.6377 103.004C46.6377 104.418 47.0244 105.551 47.7977 106.404C48.5711 107.258 49.5844 107.898 50.8377 108.324C52.0911 108.724 53.4244 108.991 54.8377 109.124C55.0244 108.591 55.1977 108.071 55.3577 107.564C55.5177 107.058 55.6777 106.551 55.8378 106.044C56.4511 104.258 56.9977 102.471 57.4777 100.684C57.9844 98.8709 58.6244 97.1909 59.3977 95.6443C59.7444 94.9243 60.1444 94.2176 60.5977 93.5243C61.0777 92.8043 61.6511 92.2043 62.3177 91.7243C63.0111 91.2443 63.8644 91.0043 64.8777 91.0043C65.4644 91.0043 66.0511 91.0443 66.6378 91.1243C67.2244 91.2043 67.6911 91.3776 68.0377 91.6443C68.8644 92.3109 69.5044 93.1643 69.9578 94.2043C70.4111 95.2176 70.6377 96.4709 70.6377 97.9643ZM67.8377 97.9643C67.9711 97.4309 68.0644 96.9509 68.1178 96.5243C68.1977 96.0976 68.2377 95.7109 68.2377 95.3643C68.2377 94.3509 67.8111 93.5109 66.9578 92.8443C66.6911 92.6309 66.4111 92.5109 66.1178 92.4843C65.8511 92.4309 65.4778 92.4043 64.9978 92.4043C63.6111 92.4043 62.5578 92.7776 61.8378 93.5243C61.1444 94.2443 60.5711 95.0709 60.1177 96.0043C59.3444 97.5509 58.7577 99.2043 58.3577 100.964C57.9577 102.698 57.6511 104.831 57.4377 107.364C57.4111 107.684 57.3844 108.004 57.3577 108.324C57.3311 108.618 57.2911 108.911 57.2378 109.204C58.1444 109.178 58.9844 109.018 59.7577 108.724C60.5311 108.404 61.2644 108.031 61.9578 107.604C62.6511 107.178 63.3044 106.791 63.9177 106.444C64.6378 106.044 65.2244 105.498 65.6778 104.804C66.1578 104.084 66.5178 103.311 66.7577 102.484C67.0244 101.631 67.2378 100.804 67.3978 100.004C67.5577 99.2043 67.7044 98.5243 67.8377 97.9643ZM48.5177 118.524C48.0377 118.284 47.5444 118.071 47.0377 117.884C46.5311 117.698 46.0511 117.604 45.5977 117.604C45.3044 117.604 45.0244 117.684 44.7577 117.844C44.5177 118.004 44.3977 118.204 44.3977 118.444C44.3977 118.791 44.4911 119.058 44.6777 119.244C44.8644 119.458 45.0911 119.564 45.3577 119.564C45.9977 119.564 46.5711 119.458 47.0777 119.244C47.6111 119.058 48.0911 118.818 48.5177 118.524Z" fill="black"/>
</svg>
