<svg width="110" height="381" viewBox="0 0 110 381" fill="none" xmlns="http://www.w3.org/2000/svg">
<path d="M9.32136 301.93L55.1817 192.078L100.538 301.93C103.197 288.824 105.178 275.06 106.587 261.148L55.1817 144.403L3.00559 261.148C4.48822 275.06 6.56234 288.824 9.32136 301.93Z" fill="black"/>
<path d="M14.8365 80.5019C4.73206 115.143 0 157.331 0 202.848C0 221.615 0.914497 241.528 3.00559 261.148L55.1817 144.403L106.587 261.148C108.574 241.528 109.421 221.615 109.421 202.848C109.421 157.331 104.022 115.143 94.0903 80.5019C78.3067 25.4514 55.1817 0 55.1817 0C55.1817 0 30.8942 25.4514 14.8365 80.5019Z" fill="black"/>
<path d="M37.1467 380.186L55.1817 365.592L73.6301 380.186C73.6301 380.186 90.0819 353.481 100.538 301.93L55.1817 192.078L9.32136 301.93C20.1738 353.481 37.1467 380.186 37.1467 380.186Z" fill="black"/>
<path d="M14.0101 290.216L55.0722 191.892L95.6834 290.216C98.0636 278.486 99.8378 266.166 101.099 253.714L55.0722 149.221L8.35506 253.714C9.68257 266.166 11.5397 278.486 14.0101 290.216Z" fill="white"/>
<path d="M18.9482 92.026C9.9009 123.032 5.66394 160.792 5.66394 201.532C5.66394 218.33 6.48276 236.153 8.35506 253.714L55.0722 149.221L101.099 253.714C102.878 236.153 103.637 218.33 103.637 201.532C103.637 160.792 98.8028 123.032 89.91 92.026C75.7778 42.7528 55.0722 10.5392 55.0722 10.5392C55.0722 10.5392 33.3259 42.7528 18.9482 92.026Z" fill="#E96F6F"/>
<path d="M38.9241 373.374L55.0722 359.621L71.5905 373.374C71.5905 373.374 86.3209 336.357 95.6834 290.216L55.0722 191.892L14.0101 290.216C23.7271 336.357 38.9241 373.374 38.9241 373.374Z" fill="#E96F6F"/>
<path d="M76.3415 97.2216C76.3415 98.7683 76.0348 100.128 75.4215 101.302C74.8082 102.448 74.0215 103.448 73.0615 104.302C72.1015 105.155 71.1015 105.875 70.0615 106.462C69.4215 106.808 68.7148 107.208 67.9415 107.662C67.1948 108.088 66.3948 108.462 65.5415 108.782C64.6882 109.102 63.7682 109.262 62.7815 109.262C62.5148 110.648 62.0882 111.955 61.5015 113.182C60.9148 114.382 60.1548 115.448 59.2215 116.382C58.9815 116.622 58.6882 116.875 58.3415 117.142C58.0215 117.382 57.6615 117.608 57.2615 117.822C57.8748 118.035 58.3948 118.208 58.8215 118.342C59.2748 118.502 59.8215 118.688 60.4615 118.902C61.1815 119.142 61.7948 119.408 62.3015 119.702C62.8082 119.995 63.3015 120.288 63.7815 120.582C64.2615 120.875 64.7948 121.115 65.3815 121.302C65.9682 121.488 66.7015 121.582 67.5815 121.582C68.4348 121.582 69.2748 121.448 70.1015 121.182C70.9548 120.942 71.6615 120.555 72.2215 120.022C72.8082 119.515 73.1015 118.848 73.1015 118.022C73.1015 117.248 72.8348 116.688 72.3015 116.342C71.7682 115.968 71.1148 115.782 70.3415 115.782C69.7548 115.782 69.2748 116.048 68.9015 116.582C68.5282 117.088 68.2615 117.528 68.1015 117.902C67.8348 118.462 67.6082 118.742 67.4215 118.742C67.2082 118.742 67.1015 118.515 67.1015 118.062C67.1015 117.822 67.1415 117.555 67.2215 117.262C67.3282 116.968 67.4748 116.688 67.6615 116.422C67.9548 115.995 68.3015 115.648 68.7015 115.382C69.1015 115.115 69.6482 114.982 70.3415 114.982C71.3282 114.982 72.2215 115.262 73.0215 115.822C73.8215 116.355 74.2215 117.115 74.2215 118.102C74.2215 119.062 73.9282 119.902 73.3415 120.622C72.7815 121.342 72.0482 121.902 71.1415 122.302C70.2615 122.702 69.3282 122.902 68.3415 122.902C67.1415 122.902 66.1815 122.795 65.4615 122.582C64.7415 122.395 64.0615 122.142 63.4215 121.822C62.8082 121.528 62.0348 121.235 61.1015 120.942C60.4348 120.728 59.6482 120.382 58.7415 119.902C57.8348 119.448 57.0348 119.088 56.3415 118.822C56.2615 118.768 56.1682 118.715 56.0615 118.662C55.9815 118.635 55.8882 118.595 55.7815 118.542C55.0348 118.862 54.2482 119.115 53.4215 119.302C52.6215 119.515 51.8348 119.622 51.0615 119.622C50.7948 119.622 50.4615 119.515 50.0615 119.302C49.6882 119.115 49.3548 118.862 49.0615 118.542C48.7948 118.222 48.6615 117.875 48.6615 117.502C48.6615 117.262 48.7548 116.982 48.9415 116.662C49.1548 116.315 49.4082 116.022 49.7015 115.782C50.0215 115.542 50.3282 115.422 50.6215 115.422C51.2348 115.422 51.9682 115.582 52.8215 115.902C53.7015 116.222 54.5148 116.568 55.2615 116.942C55.5282 116.675 55.7815 116.422 56.0215 116.182C56.2615 115.915 56.5015 115.662 56.7415 115.422C57.5415 114.622 58.2215 113.675 58.7815 112.582C59.3415 111.488 59.8348 110.342 60.2615 109.142C59.0348 109.035 57.8348 108.835 56.6615 108.542C55.4882 108.222 54.4215 107.782 53.4615 107.222C52.5282 106.662 51.7682 105.968 51.1815 105.142C50.6215 104.288 50.3415 103.275 50.3415 102.102C50.3415 100.848 50.6615 99.6749 51.3015 98.5816C51.9682 97.4616 52.8348 96.5549 53.9015 95.8616C54.9682 95.1683 56.1148 94.8216 57.3415 94.8216C58.8615 94.8216 60.0748 95.0883 60.9815 95.6216C61.8882 96.1549 62.3415 97.1816 62.3415 98.7016C62.3415 99.4216 62.1148 100.128 61.6615 100.822C61.2348 101.488 60.7948 101.968 60.3415 102.262C60.2348 102.315 60.1682 102.342 60.1415 102.342C59.9015 102.342 59.7815 102.208 59.7815 101.942C59.7815 101.782 59.8348 101.662 59.9415 101.582C60.2348 101.342 60.5682 100.955 60.9415 100.422C61.3415 99.8883 61.5415 99.3149 61.5415 98.7016C61.5415 97.4483 61.1548 96.6216 60.3815 96.2216C59.6082 95.8216 58.5948 95.6216 57.3415 95.6216C56.2482 95.6216 55.3282 95.9416 54.5815 96.5816C53.8348 97.2216 53.2748 98.0483 52.9015 99.0616C52.5282 100.048 52.3415 101.115 52.3415 102.262C52.3415 103.675 52.7282 104.808 53.5015 105.662C54.2748 106.515 55.2882 107.155 56.5415 107.582C57.7948 107.982 59.1282 108.248 60.5415 108.382C60.7282 107.848 60.9015 107.328 61.0615 106.822C61.2215 106.315 61.3815 105.808 61.5415 105.302C62.1548 103.515 62.7015 101.728 63.1815 99.9416C63.6882 98.1283 64.3282 96.4483 65.1015 94.9016C65.4482 94.1816 65.8482 93.4749 66.3015 92.7816C66.7815 92.0616 67.3548 91.4616 68.0215 90.9816C68.7148 90.5016 69.5682 90.2616 70.5815 90.2616C71.1682 90.2616 71.7548 90.3016 72.3415 90.3816C72.9282 90.4616 73.3948 90.6349 73.7415 90.9016C74.5682 91.5683 75.2082 92.4216 75.6615 93.4616C76.1148 94.4749 76.3415 95.7283 76.3415 97.2216ZM73.5415 97.2216C73.6748 96.6883 73.7682 96.2083 73.8215 95.7816C73.9015 95.3549 73.9415 94.9683 73.9415 94.6216C73.9415 93.6083 73.5148 92.7683 72.6615 92.1016C72.3948 91.8883 72.1148 91.7683 71.8215 91.7416C71.5548 91.6883 71.1815 91.6616 70.7015 91.6616C69.3148 91.6616 68.2615 92.0349 67.5415 92.7816C66.8482 93.5016 66.2748 94.3283 65.8215 95.2616C65.0482 96.8083 64.4615 98.4616 64.0615 100.222C63.6615 101.955 63.3548 104.088 63.1415 106.622C63.1148 106.942 63.0882 107.262 63.0615 107.582C63.0348 107.875 62.9948 108.168 62.9415 108.462C63.8482 108.435 64.6882 108.275 65.4615 107.982C66.2348 107.662 66.9682 107.288 67.6615 106.862C68.3548 106.435 69.0082 106.048 69.6215 105.702C70.3415 105.302 70.9282 104.755 71.3815 104.062C71.8615 103.342 72.2215 102.568 72.4615 101.742C72.7282 100.888 72.9415 100.062 73.1015 99.2616C73.2615 98.4616 73.4082 97.7816 73.5415 97.2216ZM54.2215 117.782C53.7415 117.542 53.2482 117.328 52.7415 117.142C52.2348 116.955 51.7548 116.862 51.3015 116.862C51.0082 116.862 50.7282 116.942 50.4615 117.102C50.2215 117.262 50.1015 117.462 50.1015 117.702C50.1015 118.048 50.1948 118.315 50.3815 118.502C50.5682 118.715 50.7948 118.822 51.0615 118.822C51.7015 118.822 52.2748 118.715 52.7815 118.502C53.3148 118.315 53.7948 118.075 54.2215 117.782Z" fill="black"/>
</svg>
